<svg aria-hidden="true" style="position: absolute; width: 0; height: 0; overflow: hidden;" version="1.1" xmlns="http://www.w3.org/2000/svg" xmlns:xlink="http://www.w3.org/1999/xlink">
<defs>
<symbol id="icon-plus" viewBox="0 0 26 32">
<title>plus</title>
<path d="M16.051 0h-6.272c-0.205 0-0.205 0.256 0 0.256h6.272c0.23 0 0.23-0.256 0-0.256z"></path>
<path d="M25.344 2.662v3.328c0 0.23 0.256 0.23 0.256 0v-3.328c0-1.459-1.203-2.662-2.688-2.662h-3.226c-0.205 0-0.205 0.256 0 0.256h3.226c1.331 0 2.432 1.075 2.432 2.406z"></path>
<path d="M25.6 15.923v-6.272c0-0.205-0.256-0.205-0.256 0v6.272c0 0.205 0.256 0.205 0.256 0z"></path>
<path d="M9.779 25.344c-0.205 0-0.205 0.256 0 0.256h6.272c0.179 0 0.179-0.256 0-0.256h-6.272z"></path>
<path d="M0 9.651v6.272c0 0.205 0.256 0.179 0.256 0v-6.272c0-0.205-0.256-0.205-0.256 0z"></path>
<path d="M2.688 0c-1.485 0-2.688 1.203-2.688 2.662v3.328c0 0.23 0.256 0.23 0.256 0v-3.328c0-1.331 1.101-2.406 2.432-2.406h3.456c0.205 0 0.205-0.256 0-0.256h-3.456z"></path>
<path d="M2.688 25.344c-1.331 0-2.432-1.075-2.432-2.406v-3.379c0-0.205-0.256-0.205-0.256 0v3.379c0 1.459 1.203 2.662 2.688 2.662h3.456c0.179 0 0.179-0.256 0-0.256h-3.456z"></path>
<path d="M25.344 19.558v3.379c0 1.331-1.101 2.406-2.432 2.406h-3.226c-0.205 0-0.205 0.256 0 0.256h3.226c1.485 0 2.688-1.203 2.688-2.662v-3.379c0-0.205-0.256-0.205-0.256 0z"></path>
<path d="M12.928 19.2c0 0.256-0.256 0.256-0.256 0v-12.851c0-0.256 0.256-0.256 0.256 0v12.851z"></path>
<path d="M19.226 12.646c0.256 0 0.256 0.256 0 0.256h-12.851c-0.256 0-0.256-0.256 0-0.256h12.851z"></path>
</symbol>
</defs>
</svg>
